<?xml version="1.0" standalone="no"?>
<!DOCTYPE svg PUBLIC "-//W3C//DTD SVG 20010904//EN"
 "http://www.w3.org/TR/2001/REC-SVG-20010904/DTD/svg10.dtd">
<svg version="1.0" xmlns="http://www.w3.org/2000/svg"
 width="512.000000pt" height="512.000000pt" viewBox="0 0 512.000000 512.000000"
 preserveAspectRatio="xMidYMid meet">
<metadata>
Created by potrace 1.14, written by Peter Selinger 2001-2017
</metadata>
<g transform="translate(0.000000,512.000000) scale(0.100000,-0.100000)"
fill="#000000" stroke="none">
<path d="M0 2560 l0 -2560 1078 1 c1066 1 1076 1 1002 19 -124 30 -233 77
-333 143 -38 26 -47 37 -45 57 4 35 66 63 151 68 64 4 70 2 135 -36 169 -102
273 -132 507 -142 94 -4 208 -4 255 1 47 5 159 16 250 24 202 19 316 38 395
65 150 53 193 59 251 35 30 -12 35 -19 32 -42 -2 -22 -15 -33 -73 -61 -81 -40
-261 -87 -390 -103 -49 -6 -119 -14 -155 -18 -36 -5 413 -9 998 -10 l1062 -1
0 2560 0 2560 -2560 0 -2560 0 0 -2560z m4759 2334 c59 -17 126 -71 135 -110
17 -67 -49 -114 -159 -114 -119 1 -205 54 -205 128 0 93 99 135 229 96z
m-1191 -81 c2 -16 -6 -28 -30 -43 -41 -25 -55 -25 -68 -1 -20 38 15 73 70 68
17 -1 26 -9 28 -24z m-1946 -161 c28 -28 17 -48 -57 -110 -78 -64 -117 -118
-146 -202 -18 -54 -21 -76 -16 -150 7 -97 35 -196 79 -284 51 -101 178 -298
243 -376 50 -60 61 -79 55 -96 -7 -18 0 -27 40 -57 27 -20 54 -46 60 -57 9
-17 6 -23 -22 -39 -41 -26 -123 -36 -175 -22 -30 8 -59 30 -114 89 -100 104
-180 205 -219 277 -18 32 -49 84 -68 114 -49 77 -117 226 -133 291 -8 30 -14
109 -14 175 0 116 1 122 34 190 52 108 197 245 291 276 43 14 140 3 162 -19z
m1391 -719 c54 -108 96 -198 93 -200 -9 -9 -79 28 -136 72 -96 74 -179 200
-180 272 0 39 20 52 80 52 l45 0 98 -196z m383 -828 c28 -61 26 -87 -12 -103
-31 -15 -129 -15 -155 -1 -19 10 -18 12 18 52 37 41 110 107 119 107 3 0 16
-25 30 -55z m-21 -531 c50 -23 84 -54 110 -98 24 -41 194 -39 305 3 28 11 80
38 114 60 53 35 68 40 97 35 83 -16 189 -90 189 -132 0 -21 -63 -73 -128 -106
-90 -46 -153 -59 -297 -60 -158 -1 -217 13 -349 82 -117 61 -213 174 -192 227
9 24 90 19 151 -11z m-1135 -49 c25 -13 30 -22 30 -54 0 -65 -53 -205 -103
-273 l-21 -29 -24 38 c-67 109 -128 257 -116 286 16 44 172 64 234 32z m1457
-309 c15 -9 35 -21 45 -29 26 -21 184 -289 268 -457 43 -85 99 -191 124 -235
44 -77 58 -125 35 -125 -6 0 -1 -8 11 -18 26 -21 20 -42 -13 -43 -18 0 -17 -3
10 -15 24 -10 35 -23 42 -51 15 -51 15 -50 -20 -62 -85 -30 -201 -1 -207 52
-3 24 2 30 39 46 l42 19 -40 11 c-57 16 -70 34 -36 50 26 12 27 13 8 24 -42
23 -69 67 -207 337 -91 177 -163 305 -224 400 -55 85 -38 126 48 116 26 -3 60
-12 75 -20z m-2057 -650 c203 -37 512 -130 683 -205 124 -53 125 -53 126 22 1
36 4 40 49 59 56 25 152 29 200 9 27 -11 32 -19 32 -47 0 -110 -44 -186 -127
-222 -110 -47 -224 -36 -399 38 -55 23 -128 54 -164 69 -121 51 -455 141 -593
160 -217 30 -251 0 -191 -167 14 -40 24 -82 22 -94 -5 -35 -78 -68 -153 -68
-85 0 -101 7 -118 48 -52 125 -57 144 -57 200 0 72 16 96 98 146 103 62 174
77 352 72 85 -3 193 -12 240 -20z m2652 -464 c27 -26 17 -55 -30 -87 -30 -20
-49 -25 -102 -25 -74 0 -110 18 -110 54 0 26 33 59 75 75 46 16 144 7 167 -17z
m-3884 -17 c146 -44 113 -195 -42 -195 -43 0 -124 30 -150 56 -35 35 -34 77 1
110 47 43 109 53 191 29z"/>
</g>
</svg>
