<?xml version="1.0" encoding="UTF-8" standalone="no"?>
<!-- Created with Inkscape (http://www.inkscape.org/) -->

<svg
   width="240"
   height="240"
   viewBox="0 0 240 240"
   version="1.1"
   id="SVGRoot"
   sodipodi:docname="C:\Users\HERRFO~1\AppData\Local\Temp\ink_ext_XXXXXX.svg6406V1"
   inkscape:export-filename="java.svg"
   inkscape:export-xdpi="96"
   inkscape:export-ydpi="96"
   xmlns:inkscape="http://www.inkscape.org/namespaces/inkscape"
   xmlns:sodipodi="http://sodipodi.sourceforge.net/DTD/sodipodi-0.dtd"
   xmlns="http://www.w3.org/2000/svg"
   xmlns:svg="http://www.w3.org/2000/svg">
  <sodipodi:namedview
     id="namedview381"
     pagecolor="#ffffff"
     bordercolor="#000000"
     borderopacity="0.25"
     inkscape:showpageshadow="2"
     inkscape:pageopacity="0.0"
     inkscape:pagecheckerboard="0"
     inkscape:deskcolor="#d1d1d1"
     inkscape:document-units="px"
     showgrid="false"
     inkscape:zoom="0.25"
     inkscape:cx="453.5"
     inkscape:cy="453.5"
     inkscape:window-width="2560"
     inkscape:window-height="1377"
     inkscape:window-x="1072"
     inkscape:window-y="-8"
     inkscape:window-maximized="0"
     inkscape:current-layer="layer1" />
  <defs
     id="defs376" />
  <g
     inkscape:label="Layer 1"
     inkscape:groupmode="layer"
     id="layer1">
    <path
       d="m 82.847964,165.06298 c 0,0 -10.533536,6.58779 7.327491,8.47 21.524535,2.8232 32.974135,2.35308 56.788605,-2.3527 0,0 6.41165,4.23488 15.11305,7.52898 C 108.49434,202.237 40.714395,177.29718 82.84792,165.06301 Z m -6.86975,-30.58583 c 0,0 -11.449159,8.9403 6.411649,10.82247 23.356837,2.35309 41.675727,2.82321 73.275707,-3.76441 0,0 4.12185,4.7056 10.99125,7.05848 -64.57402,19.76337 -136.933931,1.88221 -90.678166,-14.11663 z m 126.400496,53.6431 c 0,0 7.78559,6.58799 -8.70145,11.7637 -30.68428,9.4112 -128.69087,12.23434 -156.169236,0 -9.617295,-4.2347 8.701631,-10.35218 14.654982,-11.29322 5.953722,-1.41151 9.159397,-1.41151 9.159397,-1.41151 -10.532918,-7.52899 -70.0696142,15.52806 -30.226204,22.11586 109.455571,18.35165 199.676721,-7.9993 171.281681,-21.1749 z M 87.885358,102.47935 c 0,0 -49.91887,12.23433 -17.860628,16.46928 13.739182,1.882 40.75948,1.4119 65.94817,-0.4705 20.60856,-1.8822 41.21763,-5.6466 41.21763,-5.6466 0,0 -7.32766,3.29371 -12.36557,6.58798 -50.83466,13.6457 -148.383178,7.5286 -120.446911,-6.58798 23.814554,-11.76406 43.507046,-10.35216 43.507046,-10.35216 z m 89.305362,51.29024 c 51.29283,-27.29221 27.47845,-53.6431 10.99126,-50.34903 -4.12186,0.94102 -5.95373,1.8822 -5.95373,1.8822 0,0 1.37395,-2.82338 4.57959,-3.7644 32.51633,-11.764052 58.16274,35.29126 -10.53291,53.64292 0,0 0.45755,-0.47051 0.91584,-1.4117 z M 92.923399,228.1173 c 49.461331,3.29408 125.026791,-1.8822 126.858391,-25.88032 0,0 -3.66356,9.41119 -40.75929,16.4691 -42.13363,7.99969 -94.342261,7.05848 -125.026802,1.8822 0,0 6.411461,5.6468 38.927609,7.52898 z"
       id="_227268128"
       style="fill:#4e7896;stroke-width:0.894309"
       sodipodi:nodetypes="ccccsccccccccccccccccccccccccccccccscccss" />
    <path
       d="m 135.89944,7.3156279 c 0,0 18.52771,19.3437021 -17.6313,48.5129311 -28.98694,23.64221 -6.57432,37.152078 0,52.504201 C 101.23458,92.673825 88.982413,78.856665 97.349673,65.960787 109.60209,46.924074 143.37017,37.71295 135.89944,7.3156866 Z m -9.56259,88.1214941 c 8.66595,10.132528 -2.39077,19.343938 -2.39077,19.343938 0,0 22.11368,-11.66773 11.95335,-26.098877 -9.26404,-13.816795 -16.43599,-20.571734 22.41243,-43.600133 0,0 -61.260867,15.659366 -31.97502,50.35513 z"
       id="_230367536"
       style="fill:#f58219;stroke-width:0.583549"
       sodipodi:nodetypes="ccccsccccccc" />
  </g>
</svg>
